<svg width="20" height="16" viewBox="0 0 20 16" fill="none" xmlns="http://www.w3.org/2000/svg">
<mask id="mask0_1338_502" style="mask-type:alpha" maskUnits="userSpaceOnUse" x="0" y="0" width="20" height="16">
<rect y="0.5" width="20" height="15" fill="white"/>
</mask>
<g mask="url(#mask0_1338_502)">
<path fill-rule="evenodd" clip-rule="evenodd" d="M0 0.5V15.5H20V0.5H0Z" fill="#2E42A5"/>
<mask id="mask1_1338_502" style="mask-type:alpha" maskUnits="userSpaceOnUse" x="0" y="0" width="20" height="16">
<path fill-rule="evenodd" clip-rule="evenodd" d="M0 0.5V15.5H20V0.5H0Z" fill="white"/>
</mask>
<g mask="url(#mask1_1338_502)">
<mask id="mask2_1338_502" style="mask-type:alpha" maskUnits="userSpaceOnUse" x="0" y="0" width="20" height="16">
<rect y="0.5" width="20" height="15" fill="white"/>
</mask>
<g mask="url(#mask2_1338_502)">
<path d="M-2.22696 14.4284L2.1741 16.2897L20.0999 2.52366L22.4213 -0.242266L17.715 -0.864363L10.4035 5.06781L4.51853 9.0647L-2.22696 14.4284Z" fill="white"/>
<path d="M-1.62445 15.7325L0.617684 16.8126L21.5877 -0.499216H18.4395L-1.62445 15.7325Z" fill="#F50100"/>
<path d="M22.227 14.4284L17.8259 16.2897L-0.0998707 2.52366L-2.42133 -0.242266L2.28497 -0.864363L9.59646 5.06781L15.4815 9.0647L22.227 14.4284Z" fill="white"/>
<path d="M22.0768 15.3643L19.8347 16.4445L10.9054 9.03236L8.25807 8.20422L-2.6447 -0.232773H0.503517L11.4002 8.00397L14.2946 8.99699L22.0768 15.3643Z" fill="#F50100"/>
<mask id="path-9-inside-1_1338_502" fill="white">
<path fill-rule="evenodd" clip-rule="evenodd" d="M12.3611 -0.75H7.63889V5.5H-1.23279V10.5H7.63889V16.75H12.3611V10.5H21.2672V5.5H12.3611V-0.75Z"/>
</mask>
<path fill-rule="evenodd" clip-rule="evenodd" d="M12.3611 -0.75H7.63889V5.5H-1.23279V10.5H7.63889V16.75H12.3611V10.5H21.2672V5.5H12.3611V-0.75Z" fill="#F50100"/>
<path d="M7.63889 -0.75V-2H6.38889V-0.75H7.63889ZM12.3611 -0.75H13.6111V-2H12.3611V-0.75ZM7.63889 5.5V6.75H8.88889V5.5H7.63889ZM-1.23279 5.5V4.25H-2.48279V5.5H-1.23279ZM-1.23279 10.5H-2.48279V11.75H-1.23279V10.5ZM7.63889 10.5H8.88889V9.25H7.63889V10.5ZM7.63889 16.75H6.38889V18H7.63889V16.75ZM12.3611 16.75V18H13.6111V16.75H12.3611ZM12.3611 10.5V9.25H11.1111V10.5H12.3611ZM21.2672 10.5V11.75H22.5172V10.5H21.2672ZM21.2672 5.5H22.5172V4.25H21.2672V5.5ZM12.3611 5.5H11.1111V6.75H12.3611V5.5ZM7.63889 0.5H12.3611V-2H7.63889V0.5ZM8.88889 5.5V-0.75H6.38889V5.5H8.88889ZM-1.23279 6.75H7.63889V4.25H-1.23279V6.75ZM0.0172119 10.5V5.5H-2.48279V10.5H0.0172119ZM7.63889 9.25H-1.23279V11.75H7.63889V9.25ZM8.88889 16.75V10.5H6.38889V16.75H8.88889ZM12.3611 15.5H7.63889V18H12.3611V15.5ZM11.1111 10.5V16.75H13.6111V10.5H11.1111ZM21.2672 9.25H12.3611V11.75H21.2672V9.25ZM20.0172 5.5V10.5H22.5172V5.5H20.0172ZM12.3611 6.75H21.2672V4.25H12.3611V6.75ZM11.1111 -0.75V5.5H13.6111V-0.75H11.1111Z" fill="white" mask="url(#path-9-inside-1_1338_502)"/>
</g>
</g>
</g>
</svg>
