<svg width="20" height="16" viewBox="0 0 20 16" fill="none" xmlns="http://www.w3.org/2000/svg">
<mask id="mask0_182_154830" style="mask-type:alpha" maskUnits="userSpaceOnUse" x="0" y="0" width="20" height="16">
<rect y="0.5" width="20" height="15" fill="white"/>
</mask>
<g mask="url(#mask0_182_154830)">
<path fill-rule="evenodd" clip-rule="evenodd" d="M0 0.5V15.5H20V0.5H0Z" fill="#FFB400"/>
<mask id="mask1_182_154830" style="mask-type:alpha" maskUnits="userSpaceOnUse" x="0" y="0" width="20" height="16">
<path fill-rule="evenodd" clip-rule="evenodd" d="M0 0.5V15.5H20V0.5H0Z" fill="white"/>
</mask>
<g mask="url(#mask1_182_154830)">
<path fill-rule="evenodd" clip-rule="evenodd" d="M0 0.5V4.25H20V0.5H0Z" fill="#C51918"/>
<path fill-rule="evenodd" clip-rule="evenodd" d="M0 11.75V15.5H20V11.75H0Z" fill="#C51918"/>
<rect x="3.13" y="6.91998" width="0.7" height="3.64" fill="#F1F9FF"/>
<path fill-rule="evenodd" clip-rule="evenodd" d="M4.11 6.28998H2.85V6.63998H3.06V6.91998H3.9V6.63998H4.11V6.28998Z" fill="#C88A02"/>
<path fill-rule="evenodd" clip-rule="evenodd" d="M3.9 10.77H4.11V11.12H2.85V10.77H3.06V10.49H3.9V10.77Z" fill="#C88A02"/>
<path fill-rule="evenodd" clip-rule="evenodd" d="M3.48 6.35997C3.63233 6.35997 3.64782 6.30261 3.73769 6.21693C3.80747 6.15041 3.97 6.06791 3.97 5.97497C3.97 5.76234 3.75062 5.58997 3.48 5.58997C3.20938 5.58997 2.99 5.76234 2.99 5.97497C2.99 6.07851 3.10192 6.14774 3.18655 6.21693C3.27571 6.28983 3.34116 6.35997 3.48 6.35997Z" fill="#AD1619"/>
<path fill-rule="evenodd" clip-rule="evenodd" d="M2.85 11.12H4.11V11.68C4.11 11.68 3.9525 11.61 3.795 11.61C3.6375 11.61 3.48 11.68 3.48 11.68C3.48 11.68 3.3225 11.61 3.165 11.61C3.0075 11.61 2.85 11.68 2.85 11.68V11.12Z" fill="#005BBF"/>
<mask id="mask2_182_154830" style="mask-type:alpha" maskUnits="userSpaceOnUse" x="2" y="11" width="3" height="1">
<path fill-rule="evenodd" clip-rule="evenodd" d="M2.85 11.12H4.11V11.68C4.11 11.68 3.9525 11.61 3.795 11.61C3.6375 11.61 3.48 11.68 3.48 11.68C3.48 11.68 3.3225 11.61 3.165 11.61C3.0075 11.61 2.85 11.68 2.85 11.68V11.12Z" fill="white"/>
</mask>
<g mask="url(#mask2_182_154830)">
<path d="M2.83861 11.57L2.81111 11.5029C2.92459 11.4524 3.03848 11.4271 3.15255 11.4271C3.22624 11.4271 3.26472 11.4373 3.33014 11.4665C3.3876 11.492 3.41739 11.5 3.48024 11.5C3.54308 11.5 3.57287 11.492 3.63033 11.4665C3.69575 11.4373 3.73423 11.4271 3.80792 11.4271C3.92199 11.4271 4.03588 11.4524 4.14936 11.5029L4.12186 11.57C4.01689 11.5232 3.91232 11.5 3.80792 11.5C3.74508 11.5 3.71529 11.5079 3.65783 11.5335C3.59241 11.5626 3.55393 11.5729 3.48024 11.5729C3.40654 11.5729 3.36806 11.5626 3.30264 11.5335C3.24518 11.5079 3.21539 11.5 3.15255 11.5C3.04815 11.5 2.94358 11.5232 2.83861 11.57Z" fill="white"/>
<path d="M2.83861 11.3599L2.81111 11.2929C2.92459 11.2424 3.03848 11.217 3.15255 11.217C3.22624 11.217 3.26472 11.2273 3.33014 11.2564C3.3876 11.282 3.41739 11.29 3.48024 11.29C3.54308 11.29 3.57287 11.282 3.63033 11.2564C3.69575 11.2273 3.73423 11.217 3.80792 11.217C3.92199 11.217 4.03588 11.2424 4.14936 11.2929L4.12186 11.3599C4.01689 11.3132 3.91232 11.29 3.80792 11.29C3.74508 11.29 3.71529 11.2979 3.65783 11.3235C3.59241 11.3526 3.55393 11.3629 3.48024 11.3629C3.40654 11.3629 3.36806 11.3526 3.30264 11.3235C3.24518 11.2979 3.21539 11.29 3.15255 11.29C3.04815 11.29 2.94358 11.3132 2.83861 11.3599Z" fill="white"/>
</g>
<rect x="9.99" y="6.91998" width="0.7" height="3.64" fill="#F1F9FF"/>
<path fill-rule="evenodd" clip-rule="evenodd" d="M10.97 6.28998H9.71V6.63998H9.92V6.91998H10.76V6.63998H10.97V6.28998Z" fill="#C88A02"/>
<path fill-rule="evenodd" clip-rule="evenodd" d="M10.76 10.77H10.97V11.12H9.71V10.77H9.92V10.49H10.76V10.77Z" fill="#C88A02"/>
<path fill-rule="evenodd" clip-rule="evenodd" d="M10.34 6.35997C10.4923 6.35997 10.5078 6.30261 10.5977 6.21693C10.6675 6.15041 10.83 6.06791 10.83 5.97497C10.83 5.76234 10.6106 5.58997 10.34 5.58997C10.0694 5.58997 9.85 5.76234 9.85 5.97497C9.85 6.07851 9.96192 6.14774 10.0466 6.21693C10.1357 6.28983 10.2012 6.35997 10.34 6.35997Z" fill="#AD1619"/>
<path fill-rule="evenodd" clip-rule="evenodd" d="M9.71 11.12H10.97V11.68C10.97 11.68 10.8125 11.61 10.655 11.61C10.4975 11.61 10.34 11.68 10.34 11.68C10.34 11.68 10.1825 11.61 10.025 11.61C9.8675 11.61 9.71 11.68 9.71 11.68V11.12Z" fill="#005BBF"/>
<mask id="mask3_182_154830" style="mask-type:alpha" maskUnits="userSpaceOnUse" x="9" y="11" width="2" height="1">
<path fill-rule="evenodd" clip-rule="evenodd" d="M9.71 11.12H10.97V11.68C10.97 11.68 10.8125 11.61 10.655 11.61C10.4975 11.61 10.34 11.68 10.34 11.68C10.34 11.68 10.1825 11.61 10.025 11.61C9.8675 11.61 9.71 11.68 9.71 11.68V11.12Z" fill="white"/>
</mask>
<g mask="url(#mask3_182_154830)">
<path d="M9.69861 11.57L9.67111 11.5029C9.78459 11.4524 9.89848 11.4271 10.0125 11.4271C10.0862 11.4271 10.1247 11.4373 10.1901 11.4665C10.2476 11.492 10.2774 11.5 10.3402 11.5C10.4031 11.5 10.4329 11.492 10.4903 11.4665C10.5557 11.4373 10.5942 11.4271 10.6679 11.4271C10.782 11.4271 10.8959 11.4524 11.0094 11.5029L10.9819 11.57C10.8769 11.5232 10.7723 11.5 10.6679 11.5C10.6051 11.5 10.5753 11.5079 10.5178 11.5335C10.4524 11.5626 10.4139 11.5729 10.3402 11.5729C10.2665 11.5729 10.2281 11.5626 10.1626 11.5335C10.1052 11.5079 10.0754 11.5 10.0125 11.5C9.90815 11.5 9.80358 11.5232 9.69861 11.57Z" fill="white"/>
<path d="M9.69861 11.3599L9.67111 11.2929C9.78459 11.2424 9.89848 11.217 10.0125 11.217C10.0862 11.217 10.1247 11.2273 10.1901 11.2564C10.2476 11.282 10.2774 11.29 10.3402 11.29C10.4031 11.29 10.4329 11.282 10.4903 11.2564C10.5557 11.2273 10.5942 11.217 10.6679 11.217C10.782 11.217 10.8959 11.2424 11.0094 11.2929L10.9819 11.3599C10.8769 11.3132 10.7723 11.29 10.6679 11.29C10.6051 11.29 10.5753 11.2979 10.5178 11.3235C10.4524 11.3526 10.4139 11.3629 10.3402 11.3629C10.2665 11.3629 10.2281 11.3526 10.1626 11.3235C10.1052 11.2979 10.0754 11.29 10.0125 11.29C9.90815 11.29 9.80358 11.3132 9.69861 11.3599Z" fill="white"/>
</g>
<path fill-rule="evenodd" clip-rule="evenodd" d="M3.11747 10.2999C3.24368 10.1469 3.31425 10.0077 3.31425 9.85989C3.31425 9.76667 3.28651 9.68616 3.23791 9.62039L3.24612 9.61669C3.24537 9.61704 3.38457 9.55636 3.43304 9.53312C3.52313 9.48992 3.60251 9.44416 3.6799 9.38788C3.7293 9.35195 3.7955 9.31282 3.89642 9.25863L3.99125 9.20819L4.01685 9.19459C4.0659 9.16843 4.10242 9.14837 4.13635 9.12869C4.24208 9.06736 4.31195 9.01667 4.36539 8.9489C4.49197 8.7884 4.46569 8.57082 4.28832 8.45006C4.20141 8.39089 4.08415 8.35694 3.91226 8.33022L3.87665 8.32471L3.66641 8.29212C3.58415 8.2792 3.51076 8.26714 3.44531 8.25571C3.87567 8.1841 4.49019 8.21042 4.7605 8.34999L5.01741 7.85239C4.46657 7.56799 3.21149 7.59703 2.74266 7.9199C2.39878 8.15672 2.44493 8.5147 2.80271 8.66885C2.95221 8.73326 3.14711 8.776 3.50776 8.83394C3.44732 8.869 3.39721 8.90103 3.35053 8.93498C3.30318 8.96942 3.25245 8.99866 3.19092 9.02816C3.16149 9.04227 3.07435 9.08054 3.03441 9.09808L3.01432 9.10692C2.7229 9.23943 2.58146 9.42274 2.62373 9.75366L2.6466 9.93279L2.68764 9.9454L3.11747 10.2999ZM2.75723 9.837L2.75635 9.83958L2.75702 9.83775L2.75723 9.837ZM10.4412 9.85989C10.4412 10.0077 10.5118 10.1469 10.638 10.2999L11.0678 9.9454L11.1089 9.93279L11.1317 9.75366C11.174 9.42274 11.0326 9.23943 10.7411 9.10692L10.7211 9.09808L10.721 9.09804C10.681 9.08049 10.594 9.04226 10.5646 9.02816C10.503 8.99866 10.4523 8.96942 10.4049 8.93498C10.3583 8.90103 10.3081 8.869 10.2477 8.83394C10.6084 8.776 10.8033 8.73326 10.9528 8.66885C11.3105 8.5147 11.3567 8.15672 11.0128 7.9199C10.544 7.59703 9.2889 7.56799 8.73806 7.85239L8.99497 8.34999C9.26528 8.21042 9.87981 8.1841 10.3102 8.25571C10.2447 8.26714 10.1713 8.2792 10.0891 8.29212L9.87879 8.32472L9.84322 8.33022C9.67132 8.35694 9.55406 8.39089 9.46716 8.45006C9.28979 8.57082 9.26351 8.7884 9.39008 8.9489C9.44352 9.01667 9.51339 9.06736 9.61912 9.12869C9.65305 9.14837 9.68958 9.16843 9.73862 9.19459L9.76429 9.20823L9.85906 9.25863C9.95997 9.31282 10.0262 9.35195 10.0756 9.38788C10.153 9.44416 10.2323 9.48992 10.3224 9.53312C10.3709 9.55636 10.5101 9.61704 10.5093 9.61669L10.5176 9.62039C10.469 9.68616 10.4412 9.76667 10.4412 9.85989Z" fill="#AD1619"/>
<path d="M3.7021 8.24994L3.90871 8.29268V8.60064C3.68865 8.77623 3.13 9.07217 3.13 9.07217V8.24994H3.7021Z" fill="#F1F9FF"/>
<path d="M10.1966 8.24994L9.99 8.29268V8.60064C10.2101 8.77623 10.7687 9.07217 10.7687 9.07217V8.24994H10.1966Z" fill="#F1F9FF"/>
<path fill-rule="evenodd" clip-rule="evenodd" d="M9.235 5.00374V4.90125C8.87495 4.64284 8.4979 4.51364 8.10385 4.51364C7.72609 4.34647 7.34372 4.28158 6.95674 4.31897C6.95684 4.31777 6.9569 4.31717 6.9569 4.31717C6.37504 4.26023 5.78864 4.51364 5.78864 4.51364C5.19758 4.51364 4.6575 4.90125 4.6575 4.90125V5.00374L5.36352 5.71282C5.36352 5.71282 5.56225 6.39531 6.95402 6.23491V6.23664C6.95402 6.23664 7.87549 6.21149 7.94024 6.18995C7.96593 6.18141 7.99257 6.17363 8.0198 6.16568C8.20029 6.11299 8.40633 6.05283 8.52898 5.71282L9.235 5.00374ZM6.95402 4.35033C6.93393 4.5864 6.8192 6.00948 6.95402 6.23011V4.35033Z" fill="#AD1619"/>
<path fill-rule="evenodd" clip-rule="evenodd" d="M5.19606 5.59346L5.19653 5.5913L4.69983 5.124L4.7478 5.07301L5.21388 5.51151L5.22581 5.45665C5.30206 5.47323 5.35779 5.47933 5.39027 5.47588V5.38075L5.49359 5.43667C5.54441 5.46417 5.61718 5.47156 5.71303 5.45596C5.78344 5.44451 5.83094 5.36275 5.84647 5.18852L5.87783 4.83679L5.98302 5.17388C6.03062 5.32642 6.10323 5.39366 6.20661 5.39366C6.30757 5.39366 6.34816 5.35665 6.35264 5.26335L6.36534 4.99874L6.48501 5.23508C6.52812 5.32023 6.58757 5.35886 6.67211 5.35886C6.79301 5.35886 6.87378 5.25807 6.87378 5.09991H6.87606H7.01378H7.01606C7.01606 5.25807 7.09682 5.35886 7.21773 5.35886C7.30226 5.35886 7.36172 5.32023 7.40483 5.23508L7.52449 4.99874L7.5372 5.26335C7.54168 5.35665 7.58226 5.39366 7.68323 5.39366C7.7866 5.39366 7.85922 5.32642 7.90682 5.17388L8.012 4.83679L8.04336 5.18852C8.05889 5.36275 8.1064 5.44451 8.1768 5.45596C8.27265 5.47156 8.34543 5.46417 8.39625 5.43667L8.49956 5.38075V5.47588C8.53205 5.47933 8.58778 5.47323 8.66403 5.45665L8.68616 5.55844L9.20212 5.07301L9.25009 5.124L8.60803 5.72807C8.51435 5.90058 8.46718 6.01445 8.46718 6.06175C8.46718 6.13392 8.27944 6.17675 7.91302 6.22074C7.62597 6.25521 7.2872 6.27834 7.01009 6.2818V6.28225L6.97496 6.28213L6.93983 6.28225V6.2818C6.66272 6.27834 6.32396 6.25521 6.0369 6.22074C5.67049 6.17675 5.48275 6.13392 5.48275 6.06175C5.48275 6.05281 5.48106 6.04147 5.47769 6.02782C5.44074 5.98076 5.41476 5.90379 5.39748 5.83435C5.38125 5.80188 5.36273 5.76642 5.3419 5.72807L5.19965 5.59423L5.19606 5.59346ZM8.63697 5.60473C8.52232 5.62502 8.43954 5.62297 8.39562 5.58721C8.32691 5.6072 8.24633 5.60912 8.15431 5.59415C8.05604 5.57816 7.98761 5.51279 7.94643 5.40435C7.89267 5.47284 7.82469 5.51512 7.74327 5.52879C8.19121 5.59232 8.50501 5.68162 8.50501 5.68162C8.50501 5.68162 8.49726 5.74796 8.47845 5.82596C8.49836 5.78513 8.52195 5.73976 8.54922 5.68968L8.55598 5.68093L8.63697 5.60473ZM7.53189 5.50219C7.49292 5.48283 7.46182 5.45476 7.43932 5.41858C7.40592 5.44808 7.36794 5.46965 7.32576 5.48296C7.39619 5.48835 7.46506 5.49486 7.53189 5.50219ZM7.07864 5.46934C7.02411 5.44414 6.97878 5.40379 6.94492 5.35209C6.9113 5.40343 6.86637 5.44357 6.81235 5.4688C6.84435 5.46785 6.87653 5.46718 6.90887 5.46682V5.4665L6.93694 5.46658L6.96501 5.4665V5.46682C7.00311 5.46724 7.04101 5.4681 7.07864 5.46934ZM5.38886 5.67614L5.32359 5.61473C5.40194 5.6225 5.45992 5.61513 5.49422 5.58721C5.56292 5.6072 5.64351 5.60912 5.73552 5.59415C5.83379 5.57816 5.90223 5.51279 5.94341 5.40435C5.99561 5.47086 6.06122 5.51265 6.13953 5.52754C5.75331 5.5818 5.46516 5.65562 5.38886 5.67614ZM6.56104 5.48199C6.49322 5.48702 6.42682 5.49312 6.36226 5.49999C6.39921 5.48073 6.42885 5.45342 6.45051 5.41858C6.48311 5.44737 6.52007 5.46861 6.56104 5.48199ZM8.28313 6.06312C8.33218 6.08608 8.37149 6.06318 8.40257 6.01923C8.39988 6.03137 8.3982 6.04234 8.39752 6.05217C8.39342 6.05486 8.38712 6.0581 8.37886 6.06157C8.35581 6.07126 8.32059 6.08159 8.27478 6.09204C8.18474 6.11258 8.05657 6.133 7.90468 6.15124C7.60806 6.18685 7.25536 6.21029 6.97496 6.21213C6.69457 6.21029 6.34186 6.18685 6.04525 6.15124C5.89335 6.133 5.76518 6.11258 5.67514 6.09204C5.63675 6.08328 5.60579 6.07461 5.5832 6.06632C5.58569 6.06538 5.5882 6.06431 5.59074 6.06312C5.74366 5.99157 6.75484 5.92442 6.93694 5.91284C7.11903 5.92442 8.13022 5.99157 8.28313 6.06312ZM8.47597 6.0503L8.47491 6.05153L8.47554 6.05064L8.47597 6.0503Z" fill="#C88A02"/>
<path fill-rule="evenodd" clip-rule="evenodd" d="M6.94515 3.84187C7.06113 3.84187 7.15515 3.74785 7.15515 3.63187C7.15515 3.5159 7.06113 3.42188 6.94515 3.42188C6.82917 3.42188 6.73515 3.5159 6.73515 3.63187C6.73515 3.74785 6.82917 3.84187 6.94515 3.84187Z" fill="#005BBF"/>
<path fill-rule="evenodd" clip-rule="evenodd" d="M6.80854 4.87299C6.81302 4.89604 6.82001 4.9175 6.82886 4.93662C6.80174 4.92626 6.76954 4.92026 6.735 4.92026C6.63835 4.92026 6.56 4.96727 6.56 5.02526C6.56 5.08325 6.63835 5.13026 6.735 5.13026C6.83165 5.13026 6.91 5.08325 6.91 5.02526C6.91 5.08325 6.98835 5.13026 7.085 5.13026C7.18165 5.13026 7.26 5.08325 7.26 5.02526C7.26 4.96727 7.18165 4.92026 7.085 4.92026C7.06067 4.92026 7.0375 4.92324 7.01645 4.92862C7.02152 4.89991 7.0213 4.867 7.01468 4.83292C6.99624 4.73805 6.93514 4.67011 6.87822 4.68117C6.82129 4.69224 6.7901 4.77812 6.80854 4.87299ZM6.91 5.02526L6.90992 5.02205L6.91008 5.02211L6.91 5.02526ZM5.77886 5.00662C5.77002 4.9875 5.76302 4.96604 5.75854 4.94299C5.7401 4.84812 5.77129 4.76224 5.82822 4.75117C5.88514 4.74011 5.94624 4.80805 5.96468 4.90292C5.9713 4.937 5.97152 4.96991 5.96645 4.99862C5.9875 4.99324 6.01067 4.99026 6.035 4.99026C6.13165 4.99026 6.21 5.03727 6.21 5.09526C6.21 5.15325 6.13165 5.20026 6.035 5.20026C5.93835 5.20026 5.86 5.15325 5.86 5.09526L5.86008 5.09211L5.85992 5.09205L5.86 5.09526C5.86 5.15325 5.78165 5.20026 5.685 5.20026C5.58835 5.20026 5.51 5.15325 5.51 5.09526C5.51 5.03727 5.58835 4.99026 5.685 4.99026C5.71954 4.99026 5.75174 4.99626 5.77886 5.00662ZM7.97121 5.07061C7.96314 5.12803 7.87901 5.16368 7.7833 5.15023C7.68759 5.13678 7.61654 5.07932 7.62461 5.0219C7.63268 4.96447 7.71681 4.92882 7.81252 4.94227C7.84672 4.94708 7.87777 4.95751 7.90319 4.97154C7.89709 4.95137 7.89315 4.92915 7.89192 4.9057C7.88687 4.80919 7.92971 4.72848 7.98762 4.72545C8.04553 4.72241 8.09658 4.7982 8.10164 4.89471C8.10345 4.92938 8.09909 4.96201 8.09007 4.98973C8.11167 4.98732 8.13502 4.9876 8.15912 4.99099C8.25483 5.00444 8.32587 5.06189 8.3178 5.11932C8.30973 5.17674 8.2256 5.21239 8.12989 5.19894C8.03418 5.18549 7.96314 5.12803 7.97121 5.07061ZM7.97121 5.07061L7.97157 5.06742L7.97172 5.0675L7.97121 5.07061ZM8.63772 5.34827C8.72305 5.39364 8.8143 5.38892 8.84153 5.33772L8.84296 5.33485C8.85137 5.34375 8.86132 5.35022 8.87267 5.35369C8.92813 5.37065 8.99599 5.30946 9.02425 5.21704C9.05251 5.12461 9.03046 5.03594 8.975 5.01899C8.91955 5.00203 8.85168 5.06321 8.82343 5.15564C8.81656 5.17809 8.81266 5.20032 8.8115 5.22136C8.79241 5.19948 8.7668 5.17906 8.73631 5.16285C8.65097 5.11747 8.55972 5.1222 8.5325 5.1734C8.50527 5.2246 8.55238 5.30289 8.63772 5.34827ZM5.20301 5.36971C5.11767 5.41508 5.02643 5.41036 4.9992 5.35916C4.9987 5.35821 4.99822 5.35726 4.99777 5.35629C4.98936 5.36519 4.97941 5.37167 4.96806 5.37514C4.9126 5.39209 4.84474 5.33091 4.81648 5.23848C4.78822 5.14605 4.81027 5.05738 4.86573 5.04043C4.92118 5.02347 4.98905 5.08466 5.0173 5.17708C5.02417 5.19954 5.02806 5.22177 5.02923 5.2428C5.04832 5.22092 5.07393 5.20051 5.10442 5.18429C5.18976 5.13892 5.28101 5.14364 5.30823 5.19484C5.33546 5.24605 5.28835 5.32434 5.20301 5.36971Z" fill="#C88A02"/>
<path fill-rule="evenodd" clip-rule="evenodd" d="M6.86677 3.04785H7.0126V3.13998H7.10789V3.28581H7.0126V3.57748H7.10789V3.72331H6.77V3.57748H6.86677V3.28581H6.77V3.13998H6.86677V3.04785Z" fill="#C88A02"/>
<rect x="6.84" y="3.83997" width="0.28" height="0.91" fill="#C88A02"/>
<path d="M5.71286 3.99241L5.71164 4.0624C5.09095 4.05156 4.73492 4.14214 4.64454 4.32267C4.55111 4.50931 4.56848 4.7362 4.69941 5.00572L4.63644 5.0363C4.49675 4.74874 4.47768 4.49963 4.58195 4.29134C4.68928 4.07693 5.06592 3.98111 5.71286 3.99241Z" fill="white"/>
<path d="M5.83296 4.61309L5.79707 4.67319C5.6619 4.59249 5.59425 4.45475 5.59425 4.26494C5.59425 3.99214 5.73478 3.83217 6.04562 3.72269C6.24401 3.65282 6.51502 3.68147 6.8594 3.80633L6.83554 3.87214C6.50494 3.75228 6.24913 3.72523 6.06888 3.78872C5.78376 3.88913 5.66425 4.02518 5.66425 4.26494C5.66425 4.43151 5.72044 4.54591 5.83296 4.61309Z" fill="white"/>
<path d="M4.7876 4.89833L4.65551 4.94472C4.51846 4.55451 4.55759 4.2895 4.79178 4.17518C4.99813 4.07445 5.29887 4.03346 5.69549 4.04953L5.68982 4.18942C5.3143 4.1742 5.03493 4.21228 4.85319 4.30099C4.69929 4.37612 4.67114 4.56674 4.7876 4.89833Z" fill="#C88A02"/>
<path d="M6.33081 3.89916C6.01072 3.89916 5.87927 3.97711 5.80418 4.20729C5.75632 4.35398 5.80274 4.47918 5.95323 4.59604L5.86736 4.70662C5.67252 4.55532 5.60383 4.37002 5.67108 4.16387C5.76678 3.87053 5.95457 3.75916 6.33081 3.75916C6.5774 3.75916 6.7695 3.82394 6.90325 3.95579L6.92411 3.97635V4.65133H6.78411V4.03619C6.67965 3.94546 6.5296 3.89916 6.33081 3.89916Z" fill="#C88A02"/>
<path d="M8.15563 4.06235L8.15685 4.13234C8.77754 4.12151 9.13357 4.21209 9.22395 4.39262C9.31739 4.57926 9.30001 4.80615 9.16909 5.07566L9.23205 5.10625C9.37174 4.81869 9.39082 4.56957 9.28655 4.36128C9.17921 4.14688 8.80257 4.05106 8.15563 4.06235Z" fill="white"/>
<path d="M7.93645 4.62762L7.97233 4.68772C8.1075 4.60701 8.17515 4.46928 8.17515 4.27946C8.17515 4.00666 8.03463 3.84669 7.72378 3.73722C7.52539 3.66735 7.25439 3.696 6.91 3.82086L6.93386 3.88667C7.26446 3.7668 7.52027 3.73976 7.70053 3.80324C7.98564 3.90366 8.10515 4.0397 8.10515 4.27946C8.10515 4.44603 8.04896 4.56044 7.93645 4.62762Z" fill="white"/>
<path d="M9.12452 4.96834L9.25661 5.01473C9.39366 4.62451 9.35453 4.3595 9.12034 4.24519C8.91399 4.14446 8.61325 4.10346 8.21663 4.11954L8.2223 4.25942C8.59782 4.24421 8.87719 4.28229 9.05893 4.371C9.21283 4.44613 9.24099 4.63674 9.12452 4.96834Z" fill="#C88A02"/>
<path d="M7.5733 3.90996C7.89339 3.90996 8.02484 3.98792 8.09993 4.2181C8.14779 4.36478 8.10138 4.48998 7.95088 4.60685L8.03675 4.71742C8.23159 4.56612 8.30028 4.38082 8.23303 4.17467C8.13733 3.88133 7.94954 3.76996 7.5733 3.76996C7.32671 3.76996 7.13461 3.83474 7.00086 3.9666L6.98 3.98716V4.66214H7.12V4.04699C7.22446 3.95626 7.37451 3.90996 7.5733 3.90996Z" fill="#C88A02"/>
<path opacity="0.3" fill-rule="evenodd" clip-rule="evenodd" d="M4.67 6.28998H9.22V10.378C9.22 10.378 8.88202 11.75 6.945 11.75C5.00798 11.75 4.67 10.3418 4.67 10.3418V6.28998Z" fill="#E1E5E8"/>
<mask id="mask4_182_154830" style="mask-type:alpha" maskUnits="userSpaceOnUse" x="4" y="6" width="6" height="6">
<path fill-rule="evenodd" clip-rule="evenodd" d="M4.67 6.28998H9.22V10.378C9.22 10.378 8.88202 11.75 6.945 11.75C5.00798 11.75 4.67 10.3418 4.67 10.3418V6.28998Z" fill="white"/>
</mask>
<g mask="url(#mask4_182_154830)">
<rect x="4.67" y="8.81" width="2.31" height="2.73" fill="#FFC034"/>
<rect x="4.95" y="8.94995" width="0.28" height="2.59" fill="#AD1619"/>
<rect x="5.93" y="8.94995" width="0.28" height="2.59" fill="#AD1619"/>
<rect x="5.44" y="8.94995" width="0.28" height="2.59" fill="#AD1619"/>
<rect x="6.42" y="8.94995" width="0.28" height="2.59" fill="#AD1619"/>
<rect x="4.67" y="6.21997" width="2.31" height="2.66" fill="#AD1619"/>
<rect x="6.91" y="8.73999" width="2.31" height="2.66" fill="#AD1619"/>
<rect x="6.91" y="6.28998" width="2.45" height="2.59" fill="#F1F9FF"/>
<path fill-rule="evenodd" clip-rule="evenodd" d="M5.65 6.5H5.86V7.08074H6V6.79037H6.21V7.08074H6.42V7.4437H6.21V8.09704H6.42V8.46H5.16V8.09704H5.37V7.4437H5.16V7.08074H5.3V6.79037H5.51V7.08074H5.65V6.5Z" fill="#C88A02"/>
<path d="M8.11177 6.62184L8.25512 6.46838L8.55608 6.74952L8.41273 6.90298L8.11177 6.62184Z" fill="#C88A02"/>
<path fill-rule="evenodd" clip-rule="evenodd" d="M8.975 10.5875V9.05499H7.225V10.5747L7.22778 10.5865C7.31636 10.964 7.61805 11.155 8.1 11.155C8.58149 11.155 8.88313 10.9689 8.97208 10.5997L8.975 10.5875ZM8.1 10.945C7.71331 10.945 7.50213 10.8147 7.435 10.5499V9.26499H8.765V10.5621C8.69804 10.8183 8.48684 10.945 8.1 10.945Z" fill="#FFC034"/>
<path fill-rule="evenodd" clip-rule="evenodd" d="M8.17225 9.18304H8.02642V9.87783L7.45153 9.25258L7.34847 9.34733L7.86838 9.91279H7.39731V10.1228H7.75917H7.87983L7.34847 10.7007L7.45153 10.7955L8.02642 10.1702V10.9824H8.17225V10.2433L8.67994 10.7955L8.783 10.7007L8.25164 10.1228H8.84474V9.91279H8.2631L8.783 9.34733L8.67994 9.25258L8.17225 9.80475V9.18304Z" fill="#FFC034"/>
<path fill-rule="evenodd" clip-rule="evenodd" d="M8.4267 11.4017C8.4267 11.4017 6.94408 11.5182 6.94408 10.562C6.94408 10.562 6.92994 11.4017 5.38181 11.4017V12.1566H8.4267V11.4017Z" fill="#F1F9FF"/>
<path fill-rule="evenodd" clip-rule="evenodd" d="M6.945 9.37C7.23495 9.37 7.47 9.11928 7.47 8.81C7.47 8.50072 7.23495 8.25 6.945 8.25C6.65505 8.25 6.42 8.50072 6.42 8.81C6.42 9.11928 6.65505 9.37 6.945 9.37Z" fill="#005BBF" stroke="#AD1619" stroke-width="0.729167"/>
</g>
</g>
</g>
</svg>
