<svg width="78" height="78" viewBox="0 0 78 78" fill="none" xmlns="http://www.w3.org/2000/svg">
<rect x="-6.25484" y="39" width="64" height="64" rx="16" transform="rotate(-45 -6.25484 39)" fill="white"/>
<path d="M39 19L47.486 27.486L44.656 30.314L39 24.656L33.344 30.314L30.514 27.486L39 19ZM19 39L27.486 30.514L30.314 33.344L24.656 39L30.314 44.656L27.486 47.486L19 39ZM59 39L50.514 47.486L47.686 44.656L53.344 39L47.686 33.344L50.514 30.514L59 39ZM39 43C37.9391 43 36.9217 42.5786 36.1716 41.8284C35.4214 41.0783 35 40.0609 35 39C35 37.9391 35.4214 36.9217 36.1716 36.1716C36.9217 35.4214 37.9391 35 39 35C40.0609 35 41.0783 35.4214 41.8284 36.1716C42.5786 36.9217 43 37.9391 43 39C43 40.0609 42.5786 41.0783 41.8284 41.8284C41.0783 42.5786 40.0609 43 39 43ZM39 59L30.514 50.514L33.344 47.686L39 53.344L44.656 47.686L47.486 50.514L39 59Z" fill="#1165E6"/>
</svg>
