<svg width="78" height="78" viewBox="0 0 78 78" fill="none" xmlns="http://www.w3.org/2000/svg">
<rect x="-6.25484" y="39" width="64" height="64" rx="16" transform="rotate(-45 -6.25484 39)" fill="white"/>
<path d="M53.75 45.206C55.0477 42.1226 55.3464 38.71 54.6042 35.4481C53.8619 32.1861 52.116 29.2388 49.6119 27.0205C47.1077 24.8022 43.9714 23.4245 40.6437 23.0811C37.316 22.7377 33.9644 23.4459 31.06 25.106L29.076 21.632C32.1113 19.8972 35.5484 18.9887 39.0444 18.9972C42.5404 19.0056 45.9731 19.9306 49 21.68C57.98 26.864 61.42 37.964 57.234 47.22L59.918 48.768L51.588 53.196L51.258 43.768L53.75 45.206V45.206ZM24.25 32.794C22.9523 35.8774 22.6536 39.29 23.3958 42.5519C24.1381 45.8139 25.884 48.7612 28.3881 50.9795C30.8923 53.1978 34.0286 54.5755 37.3563 54.9189C40.684 55.2623 44.0356 54.5541 46.94 52.894L48.924 56.368C45.8887 58.1028 42.4516 59.0113 38.9556 59.0028C35.4596 58.9944 32.0269 58.0694 29 56.32C20.02 51.136 16.58 40.036 20.766 30.78L18.08 29.234L26.41 24.806L26.74 34.234L24.248 32.796L24.25 32.794ZM32 43H43C43.2652 43 43.5196 42.8946 43.7071 42.7071C43.8946 42.5196 44 42.2652 44 42C44 41.7348 43.8946 41.4804 43.7071 41.2929C43.5196 41.1054 43.2652 41 43 41H35C33.6739 41 32.4021 40.4732 31.4645 39.5355C30.5268 38.5979 30 37.3261 30 36C30 34.6739 30.5268 33.4022 31.4645 32.4645C32.4021 31.5268 33.6739 31 35 31H37V29H41V31H46V35H35C34.7348 35 34.4804 35.1054 34.2929 35.2929C34.1054 35.4804 34 35.7348 34 36C34 36.2652 34.1054 36.5196 34.2929 36.7071C34.4804 36.8946 34.7348 37 35 37H43C44.3261 37 45.5979 37.5268 46.5355 38.4645C47.4732 39.4021 48 40.6739 48 42C48 43.3261 47.4732 44.5979 46.5355 45.5355C45.5979 46.4732 44.3261 47 43 47H41V49H37V47H32V43Z" fill="#1165E6"/>
</svg>
