<svg width="78" height="78" viewBox="0 0 78 78" fill="none" xmlns="http://www.w3.org/2000/svg">
<rect x="39" y="-6.25488" width="64" height="64" rx="16" transform="rotate(45 39 -6.25488)" fill="white"/>
<path d="M27.47 27.906C24.9201 30.5526 23.359 33.9963 23.0491 37.6583C22.7393 41.3204 23.6995 44.9774 25.7685 48.0148C27.8375 51.0522 30.889 53.2848 34.4102 54.3372C37.9314 55.3897 41.7076 55.1979 45.104 53.794C45.334 52.294 44.83 50.854 44.624 50.35C44.164 49.23 42.648 47.316 40.118 44.662C39.442 43.952 39.486 43.406 39.728 41.788L39.754 41.606C39.918 40.498 40.194 39.842 43.924 39.25C45.82 38.95 46.318 39.706 47.008 40.756L47.24 41.1C47.896 42.06 48.382 42.28 49.116 42.612C49.446 42.762 49.856 42.952 50.406 43.262C51.71 44.008 51.71 44.85 51.71 46.694V46.904C51.71 47.686 51.634 48.374 51.514 48.972C53.0487 47.0458 54.1182 44.7915 54.6392 42.3844C55.1601 39.9773 55.1186 37.4824 54.5176 35.0941C53.9167 32.7057 52.7727 30.4882 51.1746 28.6143C49.5765 26.7403 47.5675 25.2605 45.304 24.29C44.198 25.036 42.68 26.094 42.15 26.82C41.88 27.19 41.496 29.084 40.25 29.24C39.926 29.28 39.488 29.252 39.024 29.222C37.78 29.142 36.08 29.032 35.536 30.51C35.19 31.446 35.13 33.99 36.248 35.31C36.428 35.52 36.462 35.91 36.34 36.348C36.18 36.922 35.858 37.272 35.756 37.344C35.564 37.232 35.18 36.786 34.918 36.484C34.292 35.754 33.508 34.844 32.496 34.564C32.128 34.462 31.724 34.378 31.33 34.294C30.232 34.064 28.99 33.802 28.7 33.186C28.488 32.734 28.49 32.112 28.49 31.456C28.49 30.622 28.49 29.68 28.082 28.766C27.9402 28.4398 27.7317 28.1469 27.47 27.906ZM39 59C27.954 59 19 50.046 19 39C19 27.954 27.954 19 39 19C50.046 19 59 27.954 59 39C59 50.046 50.046 59 39 59Z" fill="#1165E6"/>
</svg>
